<svg xmlns="http://www.w3.org/2000/svg" xmlns:xlink="http://www.w3.org/1999/xlink" width="500" zoomAndPan="magnify" viewBox="0 0 375 374.999991" height="500" preserveAspectRatio="xMidYMid meet" version="1.0"><defs><clipPath id="d79ba4593f"><path d="M 2.601562 0.75 L 372.351562 0.75 L 372.351562 374.25 L 2.601562 374.25 Z M 2.601562 0.75 " clip-rule="nonzero"/></clipPath><clipPath id="d1eb9386b5"><path d="M 1.851562 34.5 L 1.851562 340.5 C 1.851562 359.554688 17.296875 375 36.351562 375 L 338.648438 375 C 357.703125 375 373.148438 359.554688 373.148438 340.5 L 373.148438 34.5 C 373.148438 15.445312 357.703125 0 338.648438 0 L 36.351562 0 C 17.296875 0 1.851562 15.445312 1.851562 34.5 Z M 1.851562 34.5 " clip-rule="nonzero"/></clipPath><clipPath id="f630234c74"><path d="M 37.253906 0.898438 L 337.746094 0.898438 C 356.800781 0.898438 372.246094 16.347656 372.246094 35.398438 L 372.246094 339.601562 C 372.246094 358.652344 356.800781 374.101562 337.746094 374.101562 L 37.253906 374.101562 C 18.199219 374.101562 2.753906 358.652344 2.753906 339.601562 L 2.753906 35.398438 C 2.753906 16.347656 18.199219 0.898438 37.253906 0.898438 Z M 37.253906 0.898438 " clip-rule="nonzero"/></clipPath><clipPath id="718233bffe"><path d="M 2.601562 258 L 115 258 L 115 374.25 L 2.601562 374.25 Z M 2.601562 258 " clip-rule="nonzero"/></clipPath><clipPath id="9364e72348"><path d="M 1.851562 34.5 L 1.851562 340.5 C 1.851562 359.554688 17.296875 375 36.351562 375 L 338.648438 375 C 357.703125 375 373.148438 359.554688 373.148438 340.5 L 373.148438 34.5 C 373.148438 15.445312 357.703125 0 338.648438 0 L 36.351562 0 C 17.296875 0 1.851562 15.445312 1.851562 34.5 Z M 1.851562 34.5 " clip-rule="nonzero"/></clipPath><clipPath id="8d8fdf1dd3"><path d="M 37.253906 0.898438 L 337.746094 0.898438 C 356.800781 0.898438 372.246094 16.347656 372.246094 35.398438 L 372.246094 339.601562 C 372.246094 358.652344 356.800781 374.101562 337.746094 374.101562 L 37.253906 374.101562 C 18.199219 374.101562 2.753906 358.652344 2.753906 339.601562 L 2.753906 35.398438 C 2.753906 16.347656 18.199219 0.898438 37.253906 0.898438 Z M 37.253906 0.898438 " clip-rule="nonzero"/></clipPath><clipPath id="028b03210f"><path d="M 2.601562 129 L 115 129 L 115 246 L 2.601562 246 Z M 2.601562 129 " clip-rule="nonzero"/></clipPath><clipPath id="51f7804acb"><path d="M 1.851562 34.5 L 1.851562 340.5 C 1.851562 359.554688 17.296875 375 36.351562 375 L 338.648438 375 C 357.703125 375 373.148438 359.554688 373.148438 340.5 L 373.148438 34.5 C 373.148438 15.445312 357.703125 0 338.648438 0 L 36.351562 0 C 17.296875 0 1.851562 15.445312 1.851562 34.5 Z M 1.851562 34.5 " clip-rule="nonzero"/></clipPath><clipPath id="c79f5506ea"><path d="M 37.253906 0.898438 L 337.746094 0.898438 C 356.800781 0.898438 372.246094 16.347656 372.246094 35.398438 L 372.246094 339.601562 C 372.246094 358.652344 356.800781 374.101562 337.746094 374.101562 L 37.253906 374.101562 C 18.199219 374.101562 2.753906 358.652344 2.753906 339.601562 L 2.753906 35.398438 C 2.753906 16.347656 18.199219 0.898438 37.253906 0.898438 Z M 37.253906 0.898438 " clip-rule="nonzero"/></clipPath><clipPath id="40cdeb5d44"><path d="M 2.601562 0.75 L 115 0.75 L 115 117 L 2.601562 117 Z M 2.601562 0.75 " clip-rule="nonzero"/></clipPath><clipPath id="e15d3a5d95"><path d="M 1.851562 34.5 L 1.851562 340.5 C 1.851562 359.554688 17.296875 375 36.351562 375 L 338.648438 375 C 357.703125 375 373.148438 359.554688 373.148438 340.5 L 373.148438 34.5 C 373.148438 15.445312 357.703125 0 338.648438 0 L 36.351562 0 C 17.296875 0 1.851562 15.445312 1.851562 34.5 Z M 1.851562 34.5 " clip-rule="nonzero"/></clipPath><clipPath id="3d6dd47997"><path d="M 37.253906 0.898438 L 337.746094 0.898438 C 356.800781 0.898438 372.246094 16.347656 372.246094 35.398438 L 372.246094 339.601562 C 372.246094 358.652344 356.800781 374.101562 337.746094 374.101562 L 37.253906 374.101562 C 18.199219 374.101562 2.753906 358.652344 2.753906 339.601562 L 2.753906 35.398438 C 2.753906 16.347656 18.199219 0.898438 37.253906 0.898438 Z M 37.253906 0.898438 " clip-rule="nonzero"/></clipPath><clipPath id="9f1dba2e3a"><path d="M 127 258 L 244 258 L 244 374.25 L 127 374.25 Z M 127 258 " clip-rule="nonzero"/></clipPath><clipPath id="ef6b6c8936"><path d="M 1.851562 34.5 L 1.851562 340.5 C 1.851562 359.554688 17.296875 375 36.351562 375 L 338.648438 375 C 357.703125 375 373.148438 359.554688 373.148438 340.5 L 373.148438 34.5 C 373.148438 15.445312 357.703125 0 338.648438 0 L 36.351562 0 C 17.296875 0 1.851562 15.445312 1.851562 34.5 Z M 1.851562 34.5 " clip-rule="nonzero"/></clipPath><clipPath id="80976cf4c2"><path d="M 37.253906 0.898438 L 337.746094 0.898438 C 356.800781 0.898438 372.246094 16.347656 372.246094 35.398438 L 372.246094 339.601562 C 372.246094 358.652344 356.800781 374.101562 337.746094 374.101562 L 37.253906 374.101562 C 18.199219 374.101562 2.753906 358.652344 2.753906 339.601562 L 2.753906 35.398438 C 2.753906 16.347656 18.199219 0.898438 37.253906 0.898438 Z M 37.253906 0.898438 " clip-rule="nonzero"/></clipPath><clipPath id="c7362f52f9"><path d="M 127 129 L 244 129 L 244 246 L 127 246 Z M 127 129 " clip-rule="nonzero"/></clipPath><clipPath id="75ed2e480d"><path d="M 1.851562 34.5 L 1.851562 340.5 C 1.851562 359.554688 17.296875 375 36.351562 375 L 338.648438 375 C 357.703125 375 373.148438 359.554688 373.148438 340.5 L 373.148438 34.5 C 373.148438 15.445312 357.703125 0 338.648438 0 L 36.351562 0 C 17.296875 0 1.851562 15.445312 1.851562 34.5 Z M 1.851562 34.5 " clip-rule="nonzero"/></clipPath><clipPath id="75da3964bf"><path d="M 37.253906 0.898438 L 337.746094 0.898438 C 356.800781 0.898438 372.246094 16.347656 372.246094 35.398438 L 372.246094 339.601562 C 372.246094 358.652344 356.800781 374.101562 337.746094 374.101562 L 37.253906 374.101562 C 18.199219 374.101562 2.753906 358.652344 2.753906 339.601562 L 2.753906 35.398438 C 2.753906 16.347656 18.199219 0.898438 37.253906 0.898438 Z M 37.253906 0.898438 " clip-rule="nonzero"/></clipPath><clipPath id="e3886c2a98"><path d="M 127 0.75 L 244 0.75 L 244 117 L 127 117 Z M 127 0.75 " clip-rule="nonzero"/></clipPath><clipPath id="4569213fa5"><path d="M 1.851562 34.5 L 1.851562 340.5 C 1.851562 359.554688 17.296875 375 36.351562 375 L 338.648438 375 C 357.703125 375 373.148438 359.554688 373.148438 340.5 L 373.148438 34.5 C 373.148438 15.445312 357.703125 0 338.648438 0 L 36.351562 0 C 17.296875 0 1.851562 15.445312 1.851562 34.5 Z M 1.851562 34.5 " clip-rule="nonzero"/></clipPath><clipPath id="b0388aa257"><path d="M 37.253906 0.898438 L 337.746094 0.898438 C 356.800781 0.898438 372.246094 16.347656 372.246094 35.398438 L 372.246094 339.601562 C 372.246094 358.652344 356.800781 374.101562 337.746094 374.101562 L 37.253906 374.101562 C 18.199219 374.101562 2.753906 358.652344 2.753906 339.601562 L 2.753906 35.398438 C 2.753906 16.347656 18.199219 0.898438 37.253906 0.898438 Z M 37.253906 0.898438 " clip-rule="nonzero"/></clipPath><clipPath id="a61e5fe4cd"><path d="M 256 0.75 L 372.351562 0.75 L 372.351562 117 L 256 117 Z M 256 0.75 " clip-rule="nonzero"/></clipPath><clipPath id="abe592eb4d"><path d="M 1.851562 34.5 L 1.851562 340.5 C 1.851562 359.554688 17.296875 375 36.351562 375 L 338.648438 375 C 357.703125 375 373.148438 359.554688 373.148438 340.5 L 373.148438 34.5 C 373.148438 15.445312 357.703125 0 338.648438 0 L 36.351562 0 C 17.296875 0 1.851562 15.445312 1.851562 34.5 Z M 1.851562 34.5 " clip-rule="nonzero"/></clipPath><clipPath id="19ee1f3e0b"><path d="M 37.253906 0.898438 L 337.746094 0.898438 C 356.800781 0.898438 372.246094 16.347656 372.246094 35.398438 L 372.246094 339.601562 C 372.246094 358.652344 356.800781 374.101562 337.746094 374.101562 L 37.253906 374.101562 C 18.199219 374.101562 2.753906 358.652344 2.753906 339.601562 L 2.753906 35.398438 C 2.753906 16.347656 18.199219 0.898438 37.253906 0.898438 Z M 37.253906 0.898438 " clip-rule="nonzero"/></clipPath><clipPath id="85fe0f65b4"><path d="M 256 129 L 372.351562 129 L 372.351562 246 L 256 246 Z M 256 129 " clip-rule="nonzero"/></clipPath><clipPath id="99feb04da4"><path d="M 1.851562 34.5 L 1.851562 340.5 C 1.851562 359.554688 17.296875 375 36.351562 375 L 338.648438 375 C 357.703125 375 373.148438 359.554688 373.148438 340.5 L 373.148438 34.5 C 373.148438 15.445312 357.703125 0 338.648438 0 L 36.351562 0 C 17.296875 0 1.851562 15.445312 1.851562 34.5 Z M 1.851562 34.5 " clip-rule="nonzero"/></clipPath><clipPath id="8d6d5c5617"><path d="M 37.253906 0.898438 L 337.746094 0.898438 C 356.800781 0.898438 372.246094 16.347656 372.246094 35.398438 L 372.246094 339.601562 C 372.246094 358.652344 356.800781 374.101562 337.746094 374.101562 L 37.253906 374.101562 C 18.199219 374.101562 2.753906 358.652344 2.753906 339.601562 L 2.753906 35.398438 C 2.753906 16.347656 18.199219 0.898438 37.253906 0.898438 Z M 37.253906 0.898438 " clip-rule="nonzero"/></clipPath><clipPath id="6b60e43e87"><path d="M 256 258 L 372.351562 258 L 372.351562 374.25 L 256 374.25 Z M 256 258 " clip-rule="nonzero"/></clipPath><clipPath id="3aa283bd86"><path d="M 1.851562 34.5 L 1.851562 340.5 C 1.851562 359.554688 17.296875 375 36.351562 375 L 338.648438 375 C 357.703125 375 373.148438 359.554688 373.148438 340.5 L 373.148438 34.5 C 373.148438 15.445312 357.703125 0 338.648438 0 L 36.351562 0 C 17.296875 0 1.851562 15.445312 1.851562 34.5 Z M 1.851562 34.5 " clip-rule="nonzero"/></clipPath><clipPath id="977ee779ce"><path d="M 37.253906 0.898438 L 337.746094 0.898438 C 356.800781 0.898438 372.246094 16.347656 372.246094 35.398438 L 372.246094 339.601562 C 372.246094 358.652344 356.800781 374.101562 337.746094 374.101562 L 37.253906 374.101562 C 18.199219 374.101562 2.753906 358.652344 2.753906 339.601562 L 2.753906 35.398438 C 2.753906 16.347656 18.199219 0.898438 37.253906 0.898438 Z M 37.253906 0.898438 " clip-rule="nonzero"/></clipPath><clipPath id="9f1503a85f"><path d="M 1.851562 0 L 373.101562 0 L 373.101562 375 L 1.851562 375 Z M 1.851562 0 " clip-rule="nonzero"/></clipPath><clipPath id="94a0d7766c"><path d="M 1.851562 34.5 L 1.851562 340.5 C 1.851562 359.554688 17.296875 375 36.351562 375 L 338.648438 375 C 357.703125 375 373.148438 359.554688 373.148438 340.5 L 373.148438 34.5 C 373.148438 15.445312 357.703125 0 338.648438 0 L 36.351562 0 C 17.296875 0 1.851562 15.445312 1.851562 34.5 Z M 1.851562 34.5 " clip-rule="nonzero"/></clipPath><clipPath id="1272eae05a"><path d="M 1.851562 34.5 L 1.851562 340.5 C 1.851562 359.554688 17.296875 375 36.351562 375 L 338.636719 375 C 357.691406 375 373.136719 359.554688 373.136719 340.5 L 373.136719 34.5 C 373.136719 15.445312 357.691406 0 338.636719 0 L 36.351562 0 C 17.296875 0 1.851562 15.445312 1.851562 34.5 Z M 1.851562 34.5 " clip-rule="nonzero"/></clipPath><clipPath id="96ee84476f"><path d="M 256.507812 3.464844 L 370.003906 3.464844 L 370.003906 115.214844 L 256.507812 115.214844 Z M 256.507812 3.464844 " clip-rule="nonzero"/></clipPath><clipPath id="41d3256227"><path d="M 340.003906 115.214844 L 286.574219 115.214844 C 270.003906 115.214844 256.574219 101.785156 256.574219 85.214844 L 256.574219 33.464844 C 256.574219 16.898438 270.003906 3.464844 286.574219 3.464844 L 340.003906 3.464844 C 356.570312 3.464844 370.003906 16.898438 370.003906 33.464844 L 370.003906 85.214844 C 370.003906 101.785156 356.570312 115.214844 340.003906 115.214844 Z M 340.003906 115.214844 " clip-rule="nonzero"/></clipPath><clipPath id="e82e74bbf7"><path d="M 256.195312 259.890625 L 369.253906 259.890625 L 369.253906 371.640625 L 256.195312 371.640625 Z M 256.195312 259.890625 " clip-rule="nonzero"/></clipPath><clipPath id="fbbe684b5c"><path d="M 339.253906 371.640625 L 286.574219 371.640625 C 270.003906 371.640625 256.574219 358.207031 256.574219 341.640625 L 256.574219 289.890625 C 256.574219 273.320312 270.003906 259.890625 286.574219 259.890625 L 339.253906 259.890625 C 355.820312 259.890625 369.253906 273.320312 369.253906 289.890625 L 369.253906 341.640625 C 369.253906 358.207031 355.820312 371.640625 339.253906 371.640625 Z M 339.253906 371.640625 " clip-rule="nonzero"/></clipPath><clipPath id="7fd203439b"><path d="M 256.578125 258.140625 L 333.207031 258.140625 L 333.207031 371.675781 L 256.578125 371.675781 Z M 256.578125 258.140625 " clip-rule="nonzero"/></clipPath><clipPath id="07b11b4b9f"><path d="M 256.574219 258.136719 L 369.253906 258.136719 L 369.253906 334.765625 L 256.574219 334.765625 Z M 256.574219 258.136719 " clip-rule="nonzero"/></clipPath><clipPath id="f12f5b0079"><path d="M 257 39.96875 L 369.628906 39.96875 L 369.628906 116.597656 L 257 116.597656 Z M 257 39.96875 " clip-rule="nonzero"/></clipPath><clipPath id="ef65ba6b1f"><path d="M 256.578125 3.476562 L 333.207031 3.476562 L 333.207031 116.597656 L 256.578125 116.597656 Z M 256.578125 3.476562 " clip-rule="nonzero"/></clipPath><clipPath id="e59f3cf0b2"><path d="M 5.710938 129.300781 L 369.257812 129.300781 L 369.257812 245.699219 L 5.710938 245.699219 Z M 5.710938 129.300781 " clip-rule="nonzero"/></clipPath><clipPath id="9a6a052fb7"><path d="M 5.710938 3.476562 L 360.539062 3.476562 L 360.539062 116.597656 L 5.710938 116.597656 Z M 5.710938 3.476562 " clip-rule="nonzero"/></clipPath><clipPath id="4b47dca8d2"><path d="M 38.710938 3.476562 L 327.117188 3.476562 C 335.871094 3.476562 344.261719 6.953125 350.453125 13.144531 C 356.640625 19.332031 360.117188 27.726562 360.117188 36.476562 L 360.117188 83.597656 C 360.117188 92.351562 356.640625 100.746094 350.453125 106.933594 C 344.261719 113.121094 335.871094 116.597656 327.117188 116.597656 L 38.710938 116.597656 C 29.957031 116.597656 21.566406 113.121094 15.375 106.933594 C 9.1875 100.746094 5.710938 92.351562 5.710938 83.597656 L 5.710938 36.476562 C 5.710938 27.726562 9.1875 19.332031 15.375 13.144531 C 21.566406 6.953125 29.957031 3.476562 38.710938 3.476562 Z M 38.710938 3.476562 " clip-rule="nonzero"/></clipPath><clipPath id="daf9e8dc26"><path d="M 29.511719 270.710938 L 73.707031 270.710938 L 73.707031 314.910156 L 29.511719 314.910156 Z M 29.511719 270.710938 " clip-rule="nonzero"/></clipPath><clipPath id="7f0b3bda15"><path d="M 51.609375 270.710938 C 39.402344 270.710938 29.511719 280.605469 29.511719 292.808594 C 29.511719 305.015625 39.402344 314.910156 51.609375 314.910156 C 63.816406 314.910156 73.707031 305.015625 73.707031 292.808594 C 73.707031 280.605469 63.816406 270.710938 51.609375 270.710938 Z M 51.609375 270.710938 " clip-rule="nonzero"/></clipPath><clipPath id="641da06904"><path d="M 37.1875 270.710938 L 82.9375 270.710938 L 82.9375 309.710938 L 37.1875 309.710938 Z M 37.1875 270.710938 " clip-rule="nonzero"/></clipPath><clipPath id="5926b0bb4e"><path d="M 5.710938 259.007812 L 369.382812 259.007812 L 369.382812 372.542969 L 5.710938 372.542969 Z M 5.710938 259.007812 " clip-rule="nonzero"/></clipPath><clipPath id="e1f34974a0"><path d="M 38.710938 259.007812 L 336.257812 259.007812 C 345.011719 259.007812 353.402344 262.484375 359.59375 268.671875 C 365.78125 274.863281 369.257812 283.253906 369.257812 292.007812 L 369.257812 339.542969 C 369.257812 348.296875 365.78125 356.691406 359.59375 362.878906 C 353.402344 369.066406 345.011719 372.542969 336.257812 372.542969 L 38.710938 372.542969 C 29.957031 372.542969 21.566406 369.066406 15.375 362.878906 C 9.1875 356.691406 5.710938 348.296875 5.710938 339.542969 L 5.710938 292.007812 C 5.710938 283.253906 9.1875 274.863281 15.375 268.671875 C 21.566406 262.484375 29.957031 259.007812 38.710938 259.007812 Z M 38.710938 259.007812 " clip-rule="nonzero"/></clipPath><clipPath id="7d4eabb969"><path d="M 5.710938 258.140625 L 369.257812 258.140625 L 369.257812 334.769531 L 5.710938 334.769531 Z M 5.710938 258.140625 " clip-rule="nonzero"/></clipPath><clipPath id="7483c11b86"><path d="M 21.554688 155.359375 L 81.664062 155.359375 L 81.664062 215.9375 L 21.554688 215.9375 Z M 21.554688 155.359375 " clip-rule="nonzero"/></clipPath><clipPath id="642605c2eb"><path d="M 38.804688 155.359375 L 64.414062 155.359375 C 68.988281 155.359375 73.375 157.179688 76.609375 160.414062 C 79.84375 163.648438 81.664062 168.035156 81.664062 172.609375 L 81.664062 198.460938 C 81.664062 203.035156 79.84375 207.421875 76.609375 210.65625 C 73.375 213.890625 68.988281 215.710938 64.414062 215.710938 L 38.804688 215.710938 C 34.230469 215.710938 29.84375 213.890625 26.609375 210.65625 C 23.375 207.421875 21.554688 203.035156 21.554688 198.460938 L 21.554688 172.609375 C 21.554688 168.035156 23.375 163.648438 26.609375 160.414062 C 29.84375 157.179688 34.230469 155.359375 38.804688 155.359375 Z M 38.804688 155.359375 " clip-rule="nonzero"/></clipPath><clipPath id="517354debc"><path d="M 21.554688 285.601562 L 81.664062 285.601562 L 81.664062 346 L 21.554688 346 Z M 21.554688 285.601562 " clip-rule="nonzero"/></clipPath><clipPath id="4eeae7974f"><path d="M 38.804688 285.601562 L 64.414062 285.601562 C 68.988281 285.601562 73.375 287.417969 76.609375 290.65625 C 79.84375 293.890625 81.664062 298.277344 81.664062 302.851562 L 81.664062 328.699219 C 81.664062 333.273438 79.84375 337.664062 76.609375 340.898438 C 73.375 344.132812 68.988281 345.949219 64.414062 345.949219 L 38.804688 345.949219 C 34.230469 345.949219 29.84375 344.132812 26.609375 340.898438 C 23.375 337.664062 21.554688 333.273438 21.554688 328.699219 L 21.554688 302.851562 C 21.554688 298.277344 23.375 293.890625 26.609375 290.65625 C 29.84375 287.417969 34.230469 285.601562 38.804688 285.601562 Z M 38.804688 285.601562 " clip-rule="nonzero"/></clipPath><clipPath id="d43f1ce361"><path d="M 32.226562 164.554688 L 81.726562 164.554688 L 81.726562 206.554688 L 32.226562 206.554688 Z M 32.226562 164.554688 " clip-rule="nonzero"/></clipPath><clipPath id="87f4e1326f"><path d="M 33 297 L 66 297 L 66 339.203125 L 33 339.203125 Z M 33 297 " clip-rule="nonzero"/></clipPath><clipPath id="a6955e89b3"><path d="M 23.140625 29.863281 L 83.246094 29.863281 L 83.246094 90.441406 L 23.140625 90.441406 Z M 23.140625 29.863281 " clip-rule="nonzero"/></clipPath><clipPath id="347e0ba6e8"><path d="M 40.390625 29.863281 L 65.996094 29.863281 C 70.570312 29.863281 74.960938 31.679688 78.195312 34.917969 C 81.429688 38.152344 83.246094 42.539062 83.246094 47.113281 L 83.246094 72.960938 C 83.246094 77.539062 81.429688 81.925781 78.195312 85.160156 C 74.960938 88.394531 70.570312 90.210938 65.996094 90.210938 L 40.390625 90.210938 C 35.816406 90.210938 31.425781 88.394531 28.191406 85.160156 C 24.957031 81.925781 23.140625 77.539062 23.140625 72.960938 L 23.140625 47.113281 C 23.140625 42.539062 24.957031 38.152344 28.191406 34.917969 C 31.425781 31.679688 35.816406 29.863281 40.390625 29.863281 Z M 40.390625 29.863281 " clip-rule="nonzero"/></clipPath></defs><g clip-path="url(#d79ba4593f)"><g clip-path="url(#d1eb9386b5)"><g clip-path="url(#f630234c74)"><path fill="#f8f8f8" d="M -388.359375 0.40625 L 372.9375 0.40625 L 372.9375 374.578125 L -388.359375 374.578125 Z M -388.359375 0.40625 " fill-opacity="1" fill-rule="nonzero"/></g></g></g><g clip-path="url(#718233bffe)"><g clip-path="url(#9364e72348)"><g clip-path="url(#8d8fdf1dd3)"><path fill="#62b559" d="M -1.394531 374.578125 L 114.960938 374.578125 L 114.960938 258.195312 L -1.394531 258.195312 Z M -1.394531 374.578125 " fill-opacity="1" fill-rule="nonzero"/></g></g></g><g clip-path="url(#028b03210f)"><g clip-path="url(#51f7804acb)"><g clip-path="url(#c79f5506ea)"><path fill="#dfc23f" d="M -1.394531 245.683594 L 114.960938 245.683594 L 114.960938 129.300781 L -1.394531 129.300781 Z M -1.394531 245.683594 " fill-opacity="1" fill-rule="nonzero"/></g></g></g><g clip-path="url(#40cdeb5d44)"><g clip-path="url(#e15d3a5d95)"><g clip-path="url(#3d6dd47997)"><path fill="#76777b" d="M -1.394531 116.789062 L 114.960938 116.789062 L 114.960938 0.40625 L -1.394531 0.40625 Z M -1.394531 116.789062 " fill-opacity="1" fill-rule="nonzero"/></g></g></g><g clip-path="url(#9f1dba2e3a)"><g clip-path="url(#ef6b6c8936)"><g clip-path="url(#80976cf4c2)"><path fill="#76777b" d="M 127.589844 374.578125 L 243.949219 374.578125 L 243.949219 258.195312 L 127.589844 258.195312 Z M 127.589844 374.578125 " fill-opacity="1" fill-rule="nonzero"/></g></g></g><g clip-path="url(#c7362f52f9)"><g clip-path="url(#75ed2e480d)"><g clip-path="url(#75da3964bf)"><path fill="#ffffff" d="M 127.589844 245.683594 L 243.949219 245.683594 L 243.949219 129.300781 L 127.589844 129.300781 Z M 127.589844 245.683594 " fill-opacity="1" fill-rule="nonzero"/></g></g></g><g clip-path="url(#e3886c2a98)"><g clip-path="url(#4569213fa5)"><g clip-path="url(#b0388aa257)"><path fill="#76777b" d="M 127.589844 116.789062 L 243.949219 116.789062 L 243.949219 0.40625 L 127.589844 0.40625 Z M 127.589844 116.789062 " fill-opacity="1" fill-rule="nonzero"/></g></g></g><g clip-path="url(#a61e5fe4cd)"><g clip-path="url(#abe592eb4d)"><g clip-path="url(#19ee1f3e0b)"><path fill="#62b559" d="M 256.578125 0.40625 L 372.9375 0.40625 L 372.9375 116.789062 L 256.578125 116.789062 Z M 256.578125 0.40625 " fill-opacity="1" fill-rule="nonzero"/></g></g></g><g clip-path="url(#85fe0f65b4)"><g clip-path="url(#99feb04da4)"><g clip-path="url(#8d6d5c5617)"><path fill="#76777b" d="M 256.578125 129.300781 L 372.9375 129.300781 L 372.9375 245.683594 L 256.578125 245.683594 Z M 256.578125 129.300781 " fill-opacity="1" fill-rule="nonzero"/></g></g></g><g clip-path="url(#6b60e43e87)"><g clip-path="url(#3aa283bd86)"><g clip-path="url(#977ee779ce)"><path fill="#62b559" d="M 256.578125 258.195312 L 372.9375 258.195312 L 372.9375 374.578125 L 256.578125 374.578125 Z M 256.578125 258.195312 " fill-opacity="1" fill-rule="nonzero"/></g></g></g><g clip-path="url(#9f1503a85f)"><g clip-path="url(#94a0d7766c)"><g clip-path="url(#1272eae05a)"><path stroke-linecap="butt" transform="matrix(0.75, 0, 0, 0.75, 1.852606, 0.000000000000021316)" fill="none" stroke-linejoin="miter" d="M -0.00139104 46.000003 L -0.00139104 454.00003 C -0.00139104 479.406281 20.592359 500.000033 45.998609 500.000033 L 449.045485 500.000033 C 474.451735 500.000033 495.045485 479.406281 495.045485 454.00003 L 495.045485 46.000003 C 495.045485 20.593751 474.451735 -0.000000000000028422 449.045485 -0.000000000000028422 L 45.998609 -0.000000000000028422 C 20.592359 -0.000000000000028422 -0.00139104 20.593751 -0.00139104 46.000003 Z M -0.00139104 46.000003 " stroke="#000000" stroke-width="10" stroke-opacity="1" stroke-miterlimit="4"/></g></g></g><g clip-path="url(#96ee84476f)"><g clip-path="url(#41d3256227)"><path fill="#76777b" d="M 370.003906 115.214844 L 256.507812 115.214844 L 256.507812 3.464844 L 370.003906 3.464844 Z M 370.003906 115.214844 " fill-opacity="1" fill-rule="nonzero"/></g></g><g clip-path="url(#e82e74bbf7)"><g clip-path="url(#fbbe684b5c)"><path fill="#76777b" d="M 369.253906 371.640625 L 256.628906 371.640625 L 256.628906 259.890625 L 369.253906 259.890625 Z M 369.253906 371.640625 " fill-opacity="1" fill-rule="nonzero"/></g></g><g clip-path="url(#7fd203439b)"><path fill="#76777b" d="M 256.578125 258.140625 L 333.207031 258.140625 L 333.207031 371.585938 L 256.578125 371.585938 Z M 256.578125 258.140625 " fill-opacity="1" fill-rule="nonzero"/></g><g clip-path="url(#07b11b4b9f)"><path fill="#76777b" d="M 369.253906 258.136719 L 369.253906 334.765625 L 256.707031 334.765625 L 256.707031 258.136719 Z M 369.253906 258.136719 " fill-opacity="1" fill-rule="nonzero"/></g><g clip-path="url(#f12f5b0079)"><path fill="#76777b" d="M 369.628906 39.96875 L 369.628906 116.597656 L 257.082031 116.597656 L 257.082031 39.96875 Z M 369.628906 39.96875 " fill-opacity="1" fill-rule="nonzero"/></g><g clip-path="url(#ef65ba6b1f)"><path fill="#76777b" d="M 256.578125 3.476562 L 333.207031 3.476562 L 333.207031 116.625 L 256.578125 116.625 Z M 256.578125 3.476562 " fill-opacity="1" fill-rule="nonzero"/></g><g clip-path="url(#e59f3cf0b2)"><path fill="#61b559" d="M 5.710938 129.300781 L 369.460938 129.300781 L 369.460938 245.699219 L 5.710938 245.699219 Z M 5.710938 129.300781 " fill-opacity="1" fill-rule="nonzero"/></g><g clip-path="url(#9a6a052fb7)"><g clip-path="url(#4b47dca8d2)"><path fill="#76777b" d="M 5.710938 3.476562 L 360.097656 3.476562 L 360.097656 116.597656 L 5.710938 116.597656 Z M 5.710938 3.476562 " fill-opacity="1" fill-rule="nonzero"/></g></g><g clip-path="url(#daf9e8dc26)"><g clip-path="url(#7f0b3bda15)"><path fill="#ffffff" d="M 29.511719 270.710938 L 73.707031 270.710938 L 73.707031 314.910156 L 29.511719 314.910156 Z M 29.511719 270.710938 " fill-opacity="1" fill-rule="nonzero"/></g></g><g clip-path="url(#641da06904)"><path fill="#13ab25" d="M 37.1875 293.320312 L 42.449219 286.410156 L 49.242188 296.472656 C 49.242188 296.472656 60.019531 275.414062 82.9375 270.722656 C 72.640625 275.828125 54.425781 296.285156 51.277344 309.691406 C 42.535156 298.09375 37.1875 293.320312 37.1875 293.320312 " fill-opacity="1" fill-rule="nonzero"/></g><g clip-path="url(#5926b0bb4e)"><g clip-path="url(#e1f34974a0)"><path fill="#d15656" d="M 5.710938 259.007812 L 369.382812 259.007812 L 369.382812 372.542969 L 5.710938 372.542969 Z M 5.710938 259.007812 " fill-opacity="1" fill-rule="nonzero"/></g></g><g clip-path="url(#7d4eabb969)"><path fill="#d15656" d="M 5.710938 258.140625 L 369.398438 258.140625 L 369.398438 334.769531 L 5.710938 334.769531 Z M 5.710938 258.140625 " fill-opacity="1" fill-rule="nonzero"/></g><path stroke-linecap="round" transform="matrix(0.75, 0, 0, 0.75, 99.098576, 172.114558)" fill="none" stroke-linejoin="miter" d="M 1.998774 1.998297 L 301.134211 1.998297 " stroke="#000000" stroke-width="4" stroke-opacity="1" stroke-miterlimit="4"/><path stroke-linecap="round" transform="matrix(0.75, 0, 0, 0.75, 99.098576, 195.354758)" fill="none" stroke-linejoin="miter" d="M 1.998774 2.000948 L 208.472746 2.000948 " stroke="#000000" stroke-width="4" stroke-opacity="1" stroke-miterlimit="4"/><path stroke-linecap="round" transform="matrix(0.75, 0, 0, 0.75, 99.098576, 305.676777)" fill="none" stroke-linejoin="miter" d="M 1.998774 1.998673 L 301.134211 1.998673 " stroke="#000000" stroke-width="4" stroke-opacity="1" stroke-miterlimit="4"/><path stroke-linecap="round" transform="matrix(0.75, 0, 0, 0.75, 99.098576, 323.676776)" fill="none" stroke-linejoin="miter" d="M 1.998774 1.998674 L 301.134211 1.998674 " stroke="#000000" stroke-width="4" stroke-opacity="1" stroke-miterlimit="4"/><g clip-path="url(#7483c11b86)"><g clip-path="url(#642605c2eb)"><path fill="#ffffff" d="M 21.554688 155.359375 L 81.664062 155.359375 L 81.664062 215.703125 L 21.554688 215.703125 Z M 21.554688 155.359375 " fill-opacity="1" fill-rule="nonzero"/></g></g><g clip-path="url(#517354debc)"><g clip-path="url(#4eeae7974f)"><path fill="#ffffff" d="M 21.554688 285.601562 L 81.664062 285.601562 L 81.664062 345.941406 L 21.554688 345.941406 Z M 21.554688 285.601562 " fill-opacity="1" fill-rule="nonzero"/></g></g><g clip-path="url(#d43f1ce361)"><path fill="#61b559" d="M 32.226562 188.875 L 37.910156 181.445312 L 45.246094 192.269531 C 45.246094 192.269531 56.894531 169.617188 81.65625 164.574219 C 70.53125 170.0625 50.847656 192.066406 47.449219 206.484375 C 38.003906 194.011719 32.226562 188.875 32.226562 188.875 " fill-opacity="1" fill-rule="nonzero"/></g><path stroke-linecap="round" transform="matrix(0.75, 0, 0, 0.75, 99.098576, 49.227335)" fill="none" stroke-linejoin="miter" d="M 1.998774 1.99897 L 301.134211 1.99897 " stroke="#000000" stroke-width="4" stroke-opacity="1" stroke-miterlimit="4"/><path stroke-linecap="round" transform="matrix(0.75, 0, 0, 0.75, 99.098576, 71.159343)" fill="none" stroke-linejoin="miter" d="M 1.998774 2.001085 L 301.134211 2.001085 " stroke="#000000" stroke-width="4" stroke-opacity="1" stroke-miterlimit="4"/><g clip-path="url(#87f4e1326f)"><path fill="#d15656" d="M 61.53125 298.667969 C 56.511719 305.121094 51.488281 311.617188 46.464844 318.066406 C 44.023438 321.152344 41.582031 324.242188 39.140625 327.375 C 37.894531 328.988281 36.699219 330.644531 35.5 332.351562 C 34.394531 333.871094 33.195312 335.34375 33.242188 337.324219 C 33.289062 338.476562 34.347656 339.308594 35.453125 339.03125 C 37.34375 338.570312 38.449219 337.050781 39.644531 335.574219 C 40.9375 333.960938 42.226562 332.394531 43.46875 330.738281 C 45.820312 327.605469 48.171875 324.425781 50.566406 321.246094 C 55.496094 314.703125 60.425781 308.160156 65.355469 301.617188 C 67.015625 299.40625 63.238281 296.457031 61.53125 298.667969 Z M 61.53125 298.667969 " fill-opacity="1" fill-rule="nonzero"/></g><path fill="#d15656" d="M 31.121094 301.988281 C 36.929688 307.792969 42.871094 313.503906 48.492188 319.496094 C 51.304688 322.445312 54.066406 325.347656 56.878906 328.296875 C 58.214844 329.722656 59.550781 331.105469 60.886719 332.582031 C 62.363281 334.191406 63.652344 335.945312 65.539062 337.097656 C 67.292969 338.15625 70.011719 336.359375 69.226562 334.285156 C 67.796875 330.644531 64.433594 327.511719 61.902344 324.515625 C 59.089844 321.199219 56.140625 318.113281 53.007812 315.070312 C 46.835938 309.175781 40.566406 303.644531 33.65625 298.714844 C 31.675781 297.332031 29.511719 300.375 31.121094 301.988281 Z M 31.121094 301.988281 " fill-opacity="1" fill-rule="nonzero"/><g clip-path="url(#a6955e89b3)"><g clip-path="url(#347e0ba6e8)"><path fill="#ffffff" d="M 23.140625 29.863281 L 83.246094 29.863281 L 83.246094 90.203125 L 23.140625 90.203125 Z M 23.140625 29.863281 " fill-opacity="1" fill-rule="nonzero"/></g></g></svg>