<svg xmlns="http://www.w3.org/2000/svg" xmlns:xlink="http://www.w3.org/1999/xlink" width="500" zoomAndPan="magnify" viewBox="0 0 375 374.999991" height="500" preserveAspectRatio="xMidYMid meet" version="1.0"><defs><clipPath id="60cd0c4b7d"><path d="M 2.601562 0.75 L 372.351562 0.75 L 372.351562 374.25 L 2.601562 374.25 Z M 2.601562 0.75 " clip-rule="nonzero"/></clipPath><clipPath id="0824305337"><path d="M 1.851562 34.5 L 1.851562 340.5 C 1.851562 359.554688 17.296875 375 36.351562 375 L 338.648438 375 C 357.703125 375 373.148438 359.554688 373.148438 340.5 L 373.148438 34.5 C 373.148438 15.445312 357.703125 0 338.648438 0 L 36.351562 0 C 17.296875 0 1.851562 15.445312 1.851562 34.5 Z M 1.851562 34.5 " clip-rule="nonzero"/></clipPath><clipPath id="b28b908fcd"><path d="M 37.253906 0.898438 L 337.746094 0.898438 C 356.800781 0.898438 372.246094 16.347656 372.246094 35.398438 L 372.246094 339.601562 C 372.246094 358.652344 356.800781 374.101562 337.746094 374.101562 L 37.253906 374.101562 C 18.199219 374.101562 2.753906 358.652344 2.753906 339.601562 L 2.753906 35.398438 C 2.753906 16.347656 18.199219 0.898438 37.253906 0.898438 Z M 37.253906 0.898438 " clip-rule="nonzero"/></clipPath><clipPath id="4668d4f4d9"><path d="M 2.601562 258 L 115 258 L 115 374.25 L 2.601562 374.25 Z M 2.601562 258 " clip-rule="nonzero"/></clipPath><clipPath id="72d3f5fc63"><path d="M 1.851562 34.5 L 1.851562 340.5 C 1.851562 359.554688 17.296875 375 36.351562 375 L 338.648438 375 C 357.703125 375 373.148438 359.554688 373.148438 340.5 L 373.148438 34.5 C 373.148438 15.445312 357.703125 0 338.648438 0 L 36.351562 0 C 17.296875 0 1.851562 15.445312 1.851562 34.5 Z M 1.851562 34.5 " clip-rule="nonzero"/></clipPath><clipPath id="c85d098596"><path d="M 37.253906 0.898438 L 337.746094 0.898438 C 356.800781 0.898438 372.246094 16.347656 372.246094 35.398438 L 372.246094 339.601562 C 372.246094 358.652344 356.800781 374.101562 337.746094 374.101562 L 37.253906 374.101562 C 18.199219 374.101562 2.753906 358.652344 2.753906 339.601562 L 2.753906 35.398438 C 2.753906 16.347656 18.199219 0.898438 37.253906 0.898438 Z M 37.253906 0.898438 " clip-rule="nonzero"/></clipPath><clipPath id="50f9077d46"><path d="M 2.601562 129 L 115 129 L 115 246 L 2.601562 246 Z M 2.601562 129 " clip-rule="nonzero"/></clipPath><clipPath id="fdc094cb04"><path d="M 1.851562 34.5 L 1.851562 340.5 C 1.851562 359.554688 17.296875 375 36.351562 375 L 338.648438 375 C 357.703125 375 373.148438 359.554688 373.148438 340.5 L 373.148438 34.5 C 373.148438 15.445312 357.703125 0 338.648438 0 L 36.351562 0 C 17.296875 0 1.851562 15.445312 1.851562 34.5 Z M 1.851562 34.5 " clip-rule="nonzero"/></clipPath><clipPath id="c997d41580"><path d="M 37.253906 0.898438 L 337.746094 0.898438 C 356.800781 0.898438 372.246094 16.347656 372.246094 35.398438 L 372.246094 339.601562 C 372.246094 358.652344 356.800781 374.101562 337.746094 374.101562 L 37.253906 374.101562 C 18.199219 374.101562 2.753906 358.652344 2.753906 339.601562 L 2.753906 35.398438 C 2.753906 16.347656 18.199219 0.898438 37.253906 0.898438 Z M 37.253906 0.898438 " clip-rule="nonzero"/></clipPath><clipPath id="f1bdc6c79b"><path d="M 2.601562 0.75 L 115 0.75 L 115 117 L 2.601562 117 Z M 2.601562 0.75 " clip-rule="nonzero"/></clipPath><clipPath id="422a6725bc"><path d="M 1.851562 34.5 L 1.851562 340.5 C 1.851562 359.554688 17.296875 375 36.351562 375 L 338.648438 375 C 357.703125 375 373.148438 359.554688 373.148438 340.5 L 373.148438 34.5 C 373.148438 15.445312 357.703125 0 338.648438 0 L 36.351562 0 C 17.296875 0 1.851562 15.445312 1.851562 34.5 Z M 1.851562 34.5 " clip-rule="nonzero"/></clipPath><clipPath id="80aa21eb60"><path d="M 37.253906 0.898438 L 337.746094 0.898438 C 356.800781 0.898438 372.246094 16.347656 372.246094 35.398438 L 372.246094 339.601562 C 372.246094 358.652344 356.800781 374.101562 337.746094 374.101562 L 37.253906 374.101562 C 18.199219 374.101562 2.753906 358.652344 2.753906 339.601562 L 2.753906 35.398438 C 2.753906 16.347656 18.199219 0.898438 37.253906 0.898438 Z M 37.253906 0.898438 " clip-rule="nonzero"/></clipPath><clipPath id="7d7b483b0e"><path d="M 127 258 L 244 258 L 244 374.25 L 127 374.25 Z M 127 258 " clip-rule="nonzero"/></clipPath><clipPath id="695d2994d3"><path d="M 1.851562 34.5 L 1.851562 340.5 C 1.851562 359.554688 17.296875 375 36.351562 375 L 338.648438 375 C 357.703125 375 373.148438 359.554688 373.148438 340.5 L 373.148438 34.5 C 373.148438 15.445312 357.703125 0 338.648438 0 L 36.351562 0 C 17.296875 0 1.851562 15.445312 1.851562 34.5 Z M 1.851562 34.5 " clip-rule="nonzero"/></clipPath><clipPath id="8fac39db99"><path d="M 37.253906 0.898438 L 337.746094 0.898438 C 356.800781 0.898438 372.246094 16.347656 372.246094 35.398438 L 372.246094 339.601562 C 372.246094 358.652344 356.800781 374.101562 337.746094 374.101562 L 37.253906 374.101562 C 18.199219 374.101562 2.753906 358.652344 2.753906 339.601562 L 2.753906 35.398438 C 2.753906 16.347656 18.199219 0.898438 37.253906 0.898438 Z M 37.253906 0.898438 " clip-rule="nonzero"/></clipPath><clipPath id="b0df6a94f5"><path d="M 127 129 L 244 129 L 244 246 L 127 246 Z M 127 129 " clip-rule="nonzero"/></clipPath><clipPath id="f06bc84cfa"><path d="M 1.851562 34.5 L 1.851562 340.5 C 1.851562 359.554688 17.296875 375 36.351562 375 L 338.648438 375 C 357.703125 375 373.148438 359.554688 373.148438 340.5 L 373.148438 34.5 C 373.148438 15.445312 357.703125 0 338.648438 0 L 36.351562 0 C 17.296875 0 1.851562 15.445312 1.851562 34.5 Z M 1.851562 34.5 " clip-rule="nonzero"/></clipPath><clipPath id="96ba5a1469"><path d="M 37.253906 0.898438 L 337.746094 0.898438 C 356.800781 0.898438 372.246094 16.347656 372.246094 35.398438 L 372.246094 339.601562 C 372.246094 358.652344 356.800781 374.101562 337.746094 374.101562 L 37.253906 374.101562 C 18.199219 374.101562 2.753906 358.652344 2.753906 339.601562 L 2.753906 35.398438 C 2.753906 16.347656 18.199219 0.898438 37.253906 0.898438 Z M 37.253906 0.898438 " clip-rule="nonzero"/></clipPath><clipPath id="be6f6428b0"><path d="M 127 0.75 L 244 0.75 L 244 117 L 127 117 Z M 127 0.75 " clip-rule="nonzero"/></clipPath><clipPath id="04d41cc23c"><path d="M 1.851562 34.5 L 1.851562 340.5 C 1.851562 359.554688 17.296875 375 36.351562 375 L 338.648438 375 C 357.703125 375 373.148438 359.554688 373.148438 340.5 L 373.148438 34.5 C 373.148438 15.445312 357.703125 0 338.648438 0 L 36.351562 0 C 17.296875 0 1.851562 15.445312 1.851562 34.5 Z M 1.851562 34.5 " clip-rule="nonzero"/></clipPath><clipPath id="863c9e7896"><path d="M 37.253906 0.898438 L 337.746094 0.898438 C 356.800781 0.898438 372.246094 16.347656 372.246094 35.398438 L 372.246094 339.601562 C 372.246094 358.652344 356.800781 374.101562 337.746094 374.101562 L 37.253906 374.101562 C 18.199219 374.101562 2.753906 358.652344 2.753906 339.601562 L 2.753906 35.398438 C 2.753906 16.347656 18.199219 0.898438 37.253906 0.898438 Z M 37.253906 0.898438 " clip-rule="nonzero"/></clipPath><clipPath id="9c554399f9"><path d="M 256 0.75 L 372.351562 0.75 L 372.351562 117 L 256 117 Z M 256 0.75 " clip-rule="nonzero"/></clipPath><clipPath id="00e3c1fc3a"><path d="M 1.851562 34.5 L 1.851562 340.5 C 1.851562 359.554688 17.296875 375 36.351562 375 L 338.648438 375 C 357.703125 375 373.148438 359.554688 373.148438 340.5 L 373.148438 34.5 C 373.148438 15.445312 357.703125 0 338.648438 0 L 36.351562 0 C 17.296875 0 1.851562 15.445312 1.851562 34.5 Z M 1.851562 34.5 " clip-rule="nonzero"/></clipPath><clipPath id="f8c410dfbe"><path d="M 37.253906 0.898438 L 337.746094 0.898438 C 356.800781 0.898438 372.246094 16.347656 372.246094 35.398438 L 372.246094 339.601562 C 372.246094 358.652344 356.800781 374.101562 337.746094 374.101562 L 37.253906 374.101562 C 18.199219 374.101562 2.753906 358.652344 2.753906 339.601562 L 2.753906 35.398438 C 2.753906 16.347656 18.199219 0.898438 37.253906 0.898438 Z M 37.253906 0.898438 " clip-rule="nonzero"/></clipPath><clipPath id="8fd6a423f8"><path d="M 256 129 L 372.351562 129 L 372.351562 246 L 256 246 Z M 256 129 " clip-rule="nonzero"/></clipPath><clipPath id="b19b200e0c"><path d="M 1.851562 34.5 L 1.851562 340.5 C 1.851562 359.554688 17.296875 375 36.351562 375 L 338.648438 375 C 357.703125 375 373.148438 359.554688 373.148438 340.5 L 373.148438 34.5 C 373.148438 15.445312 357.703125 0 338.648438 0 L 36.351562 0 C 17.296875 0 1.851562 15.445312 1.851562 34.5 Z M 1.851562 34.5 " clip-rule="nonzero"/></clipPath><clipPath id="6c423b9c86"><path d="M 37.253906 0.898438 L 337.746094 0.898438 C 356.800781 0.898438 372.246094 16.347656 372.246094 35.398438 L 372.246094 339.601562 C 372.246094 358.652344 356.800781 374.101562 337.746094 374.101562 L 37.253906 374.101562 C 18.199219 374.101562 2.753906 358.652344 2.753906 339.601562 L 2.753906 35.398438 C 2.753906 16.347656 18.199219 0.898438 37.253906 0.898438 Z M 37.253906 0.898438 " clip-rule="nonzero"/></clipPath><clipPath id="354e3ad6ce"><path d="M 256 258 L 372.351562 258 L 372.351562 374.25 L 256 374.25 Z M 256 258 " clip-rule="nonzero"/></clipPath><clipPath id="b94a21230e"><path d="M 1.851562 34.5 L 1.851562 340.5 C 1.851562 359.554688 17.296875 375 36.351562 375 L 338.648438 375 C 357.703125 375 373.148438 359.554688 373.148438 340.5 L 373.148438 34.5 C 373.148438 15.445312 357.703125 0 338.648438 0 L 36.351562 0 C 17.296875 0 1.851562 15.445312 1.851562 34.5 Z M 1.851562 34.5 " clip-rule="nonzero"/></clipPath><clipPath id="0d777ef290"><path d="M 37.253906 0.898438 L 337.746094 0.898438 C 356.800781 0.898438 372.246094 16.347656 372.246094 35.398438 L 372.246094 339.601562 C 372.246094 358.652344 356.800781 374.101562 337.746094 374.101562 L 37.253906 374.101562 C 18.199219 374.101562 2.753906 358.652344 2.753906 339.601562 L 2.753906 35.398438 C 2.753906 16.347656 18.199219 0.898438 37.253906 0.898438 Z M 37.253906 0.898438 " clip-rule="nonzero"/></clipPath><clipPath id="b0fbc1f14e"><path d="M 1.851562 0 L 373.101562 0 L 373.101562 375 L 1.851562 375 Z M 1.851562 0 " clip-rule="nonzero"/></clipPath><clipPath id="28a62b10fe"><path d="M 1.851562 34.5 L 1.851562 340.5 C 1.851562 359.554688 17.296875 375 36.351562 375 L 338.648438 375 C 357.703125 375 373.148438 359.554688 373.148438 340.5 L 373.148438 34.5 C 373.148438 15.445312 357.703125 0 338.648438 0 L 36.351562 0 C 17.296875 0 1.851562 15.445312 1.851562 34.5 Z M 1.851562 34.5 " clip-rule="nonzero"/></clipPath><clipPath id="6120fcb9e2"><path d="M 1.851562 34.5 L 1.851562 340.5 C 1.851562 359.554688 17.296875 375 36.351562 375 L 338.636719 375 C 357.691406 375 373.136719 359.554688 373.136719 340.5 L 373.136719 34.5 C 373.136719 15.445312 357.691406 0 338.636719 0 L 36.351562 0 C 17.296875 0 1.851562 15.445312 1.851562 34.5 Z M 1.851562 34.5 " clip-rule="nonzero"/></clipPath></defs><g clip-path="url(#60cd0c4b7d)"><g clip-path="url(#0824305337)"><g clip-path="url(#b28b908fcd)"><path fill="#f8f8f8" d="M -388.359375 0.40625 L 372.9375 0.40625 L 372.9375 374.578125 L -388.359375 374.578125 Z M -388.359375 0.40625 " fill-opacity="1" fill-rule="nonzero"/></g></g></g><g clip-path="url(#4668d4f4d9)"><g clip-path="url(#72d3f5fc63)"><g clip-path="url(#c85d098596)"><path fill="#62b559" d="M -1.394531 374.578125 L 114.960938 374.578125 L 114.960938 258.195312 L -1.394531 258.195312 Z M -1.394531 374.578125 " fill-opacity="1" fill-rule="nonzero"/></g></g></g><g clip-path="url(#50f9077d46)"><g clip-path="url(#fdc094cb04)"><g clip-path="url(#c997d41580)"><path fill="#dfc23f" d="M -1.394531 245.683594 L 114.960938 245.683594 L 114.960938 129.300781 L -1.394531 129.300781 Z M -1.394531 245.683594 " fill-opacity="1" fill-rule="nonzero"/></g></g></g><g clip-path="url(#f1bdc6c79b)"><g clip-path="url(#422a6725bc)"><g clip-path="url(#80aa21eb60)"><path fill="#76777b" d="M -1.394531 116.789062 L 114.960938 116.789062 L 114.960938 0.40625 L -1.394531 0.40625 Z M -1.394531 116.789062 " fill-opacity="1" fill-rule="nonzero"/></g></g></g><g clip-path="url(#7d7b483b0e)"><g clip-path="url(#695d2994d3)"><g clip-path="url(#8fac39db99)"><path fill="#76777b" d="M 127.589844 374.578125 L 243.949219 374.578125 L 243.949219 258.195312 L 127.589844 258.195312 Z M 127.589844 374.578125 " fill-opacity="1" fill-rule="nonzero"/></g></g></g><g clip-path="url(#b0df6a94f5)"><g clip-path="url(#f06bc84cfa)"><g clip-path="url(#96ba5a1469)"><path fill="#ffffff" d="M 127.589844 245.683594 L 243.949219 245.683594 L 243.949219 129.300781 L 127.589844 129.300781 Z M 127.589844 245.683594 " fill-opacity="1" fill-rule="nonzero"/></g></g></g><g clip-path="url(#be6f6428b0)"><g clip-path="url(#04d41cc23c)"><g clip-path="url(#863c9e7896)"><path fill="#76777b" d="M 127.589844 116.789062 L 243.949219 116.789062 L 243.949219 0.40625 L 127.589844 0.40625 Z M 127.589844 116.789062 " fill-opacity="1" fill-rule="nonzero"/></g></g></g><g clip-path="url(#9c554399f9)"><g clip-path="url(#00e3c1fc3a)"><g clip-path="url(#f8c410dfbe)"><path fill="#62b559" d="M 256.578125 0.40625 L 372.9375 0.40625 L 372.9375 116.789062 L 256.578125 116.789062 Z M 256.578125 0.40625 " fill-opacity="1" fill-rule="nonzero"/></g></g></g><g clip-path="url(#8fd6a423f8)"><g clip-path="url(#b19b200e0c)"><g clip-path="url(#6c423b9c86)"><path fill="#76777b" d="M 256.578125 129.300781 L 372.9375 129.300781 L 372.9375 245.683594 L 256.578125 245.683594 Z M 256.578125 129.300781 " fill-opacity="1" fill-rule="nonzero"/></g></g></g><g clip-path="url(#354e3ad6ce)"><g clip-path="url(#b94a21230e)"><g clip-path="url(#0d777ef290)"><path fill="#62b559" d="M 256.578125 258.195312 L 372.9375 258.195312 L 372.9375 374.578125 L 256.578125 374.578125 Z M 256.578125 258.195312 " fill-opacity="1" fill-rule="nonzero"/></g></g></g><g clip-path="url(#b0fbc1f14e)"><g clip-path="url(#28a62b10fe)"><g clip-path="url(#6120fcb9e2)"><path stroke-linecap="butt" transform="matrix(0.75, 0, 0, 0.75, 1.852606, 0.000000000000021316)" fill="none" stroke-linejoin="miter" d="M -0.00139104 46.000003 L -0.00139104 454.00003 C -0.00139104 479.406281 20.592359 500.000033 45.998609 500.000033 L 449.045485 500.000033 C 474.451735 500.000033 495.045485 479.406281 495.045485 454.00003 L 495.045485 46.000003 C 495.045485 20.593751 474.451735 -0.000000000000028422 449.045485 -0.000000000000028422 L 45.998609 -0.000000000000028422 C 20.592359 -0.000000000000028422 -0.00139104 20.593751 -0.00139104 46.000003 Z M -0.00139104 46.000003 " stroke="#000000" stroke-width="10" stroke-opacity="1" stroke-miterlimit="4"/></g></g></g></svg>