<svg xmlns="http://www.w3.org/2000/svg" xmlns:xlink="http://www.w3.org/1999/xlink" width="500" zoomAndPan="magnify" viewBox="0 0 375 374.999991" height="500" preserveAspectRatio="xMidYMid meet" version="1.0"><defs><clipPath id="7680b4b400"><path d="M 2.601562 0.75 L 372.351562 0.75 L 372.351562 374.25 L 2.601562 374.25 Z M 2.601562 0.75 " clip-rule="nonzero"/></clipPath><clipPath id="ad2804e0f4"><path d="M 1.851562 34.5 L 1.851562 340.5 C 1.851562 359.554688 17.296875 375 36.351562 375 L 338.648438 375 C 357.703125 375 373.148438 359.554688 373.148438 340.5 L 373.148438 34.5 C 373.148438 15.445312 357.703125 0 338.648438 0 L 36.351562 0 C 17.296875 0 1.851562 15.445312 1.851562 34.5 Z M 1.851562 34.5 " clip-rule="nonzero"/></clipPath><clipPath id="a8b9b18b0b"><path d="M 37.253906 0.898438 L 337.746094 0.898438 C 356.800781 0.898438 372.246094 16.347656 372.246094 35.398438 L 372.246094 339.601562 C 372.246094 358.652344 356.800781 374.101562 337.746094 374.101562 L 37.253906 374.101562 C 18.199219 374.101562 2.753906 358.652344 2.753906 339.601562 L 2.753906 35.398438 C 2.753906 16.347656 18.199219 0.898438 37.253906 0.898438 Z M 37.253906 0.898438 " clip-rule="nonzero"/></clipPath><clipPath id="acd0b463af"><path d="M 2.601562 258 L 115 258 L 115 374.25 L 2.601562 374.25 Z M 2.601562 258 " clip-rule="nonzero"/></clipPath><clipPath id="aef0cfca16"><path d="M 1.851562 34.5 L 1.851562 340.5 C 1.851562 359.554688 17.296875 375 36.351562 375 L 338.648438 375 C 357.703125 375 373.148438 359.554688 373.148438 340.5 L 373.148438 34.5 C 373.148438 15.445312 357.703125 0 338.648438 0 L 36.351562 0 C 17.296875 0 1.851562 15.445312 1.851562 34.5 Z M 1.851562 34.5 " clip-rule="nonzero"/></clipPath><clipPath id="1ae9e82c1c"><path d="M 37.253906 0.898438 L 337.746094 0.898438 C 356.800781 0.898438 372.246094 16.347656 372.246094 35.398438 L 372.246094 339.601562 C 372.246094 358.652344 356.800781 374.101562 337.746094 374.101562 L 37.253906 374.101562 C 18.199219 374.101562 2.753906 358.652344 2.753906 339.601562 L 2.753906 35.398438 C 2.753906 16.347656 18.199219 0.898438 37.253906 0.898438 Z M 37.253906 0.898438 " clip-rule="nonzero"/></clipPath><clipPath id="55a7b8e94d"><path d="M 2.601562 129 L 115 129 L 115 246 L 2.601562 246 Z M 2.601562 129 " clip-rule="nonzero"/></clipPath><clipPath id="31cb3e1429"><path d="M 1.851562 34.5 L 1.851562 340.5 C 1.851562 359.554688 17.296875 375 36.351562 375 L 338.648438 375 C 357.703125 375 373.148438 359.554688 373.148438 340.5 L 373.148438 34.5 C 373.148438 15.445312 357.703125 0 338.648438 0 L 36.351562 0 C 17.296875 0 1.851562 15.445312 1.851562 34.5 Z M 1.851562 34.5 " clip-rule="nonzero"/></clipPath><clipPath id="51e03cecee"><path d="M 37.253906 0.898438 L 337.746094 0.898438 C 356.800781 0.898438 372.246094 16.347656 372.246094 35.398438 L 372.246094 339.601562 C 372.246094 358.652344 356.800781 374.101562 337.746094 374.101562 L 37.253906 374.101562 C 18.199219 374.101562 2.753906 358.652344 2.753906 339.601562 L 2.753906 35.398438 C 2.753906 16.347656 18.199219 0.898438 37.253906 0.898438 Z M 37.253906 0.898438 " clip-rule="nonzero"/></clipPath><clipPath id="7cfa8ad1af"><path d="M 2.601562 0.75 L 115 0.75 L 115 117 L 2.601562 117 Z M 2.601562 0.75 " clip-rule="nonzero"/></clipPath><clipPath id="f92f274f82"><path d="M 1.851562 34.5 L 1.851562 340.5 C 1.851562 359.554688 17.296875 375 36.351562 375 L 338.648438 375 C 357.703125 375 373.148438 359.554688 373.148438 340.5 L 373.148438 34.5 C 373.148438 15.445312 357.703125 0 338.648438 0 L 36.351562 0 C 17.296875 0 1.851562 15.445312 1.851562 34.5 Z M 1.851562 34.5 " clip-rule="nonzero"/></clipPath><clipPath id="c7f8dbf615"><path d="M 37.253906 0.898438 L 337.746094 0.898438 C 356.800781 0.898438 372.246094 16.347656 372.246094 35.398438 L 372.246094 339.601562 C 372.246094 358.652344 356.800781 374.101562 337.746094 374.101562 L 37.253906 374.101562 C 18.199219 374.101562 2.753906 358.652344 2.753906 339.601562 L 2.753906 35.398438 C 2.753906 16.347656 18.199219 0.898438 37.253906 0.898438 Z M 37.253906 0.898438 " clip-rule="nonzero"/></clipPath><clipPath id="65b2ffa815"><path d="M 127 258 L 244 258 L 244 374.25 L 127 374.25 Z M 127 258 " clip-rule="nonzero"/></clipPath><clipPath id="e415f401a0"><path d="M 1.851562 34.5 L 1.851562 340.5 C 1.851562 359.554688 17.296875 375 36.351562 375 L 338.648438 375 C 357.703125 375 373.148438 359.554688 373.148438 340.5 L 373.148438 34.5 C 373.148438 15.445312 357.703125 0 338.648438 0 L 36.351562 0 C 17.296875 0 1.851562 15.445312 1.851562 34.5 Z M 1.851562 34.5 " clip-rule="nonzero"/></clipPath><clipPath id="0e5efcba67"><path d="M 37.253906 0.898438 L 337.746094 0.898438 C 356.800781 0.898438 372.246094 16.347656 372.246094 35.398438 L 372.246094 339.601562 C 372.246094 358.652344 356.800781 374.101562 337.746094 374.101562 L 37.253906 374.101562 C 18.199219 374.101562 2.753906 358.652344 2.753906 339.601562 L 2.753906 35.398438 C 2.753906 16.347656 18.199219 0.898438 37.253906 0.898438 Z M 37.253906 0.898438 " clip-rule="nonzero"/></clipPath><clipPath id="7301d075f5"><path d="M 127 129 L 244 129 L 244 246 L 127 246 Z M 127 129 " clip-rule="nonzero"/></clipPath><clipPath id="f22f2ae6a7"><path d="M 1.851562 34.5 L 1.851562 340.5 C 1.851562 359.554688 17.296875 375 36.351562 375 L 338.648438 375 C 357.703125 375 373.148438 359.554688 373.148438 340.5 L 373.148438 34.5 C 373.148438 15.445312 357.703125 0 338.648438 0 L 36.351562 0 C 17.296875 0 1.851562 15.445312 1.851562 34.5 Z M 1.851562 34.5 " clip-rule="nonzero"/></clipPath><clipPath id="946193c3a3"><path d="M 37.253906 0.898438 L 337.746094 0.898438 C 356.800781 0.898438 372.246094 16.347656 372.246094 35.398438 L 372.246094 339.601562 C 372.246094 358.652344 356.800781 374.101562 337.746094 374.101562 L 37.253906 374.101562 C 18.199219 374.101562 2.753906 358.652344 2.753906 339.601562 L 2.753906 35.398438 C 2.753906 16.347656 18.199219 0.898438 37.253906 0.898438 Z M 37.253906 0.898438 " clip-rule="nonzero"/></clipPath><clipPath id="70b7fc4527"><path d="M 127 0.75 L 244 0.75 L 244 117 L 127 117 Z M 127 0.75 " clip-rule="nonzero"/></clipPath><clipPath id="c65ae65c8c"><path d="M 1.851562 34.5 L 1.851562 340.5 C 1.851562 359.554688 17.296875 375 36.351562 375 L 338.648438 375 C 357.703125 375 373.148438 359.554688 373.148438 340.5 L 373.148438 34.5 C 373.148438 15.445312 357.703125 0 338.648438 0 L 36.351562 0 C 17.296875 0 1.851562 15.445312 1.851562 34.5 Z M 1.851562 34.5 " clip-rule="nonzero"/></clipPath><clipPath id="0828bb1333"><path d="M 37.253906 0.898438 L 337.746094 0.898438 C 356.800781 0.898438 372.246094 16.347656 372.246094 35.398438 L 372.246094 339.601562 C 372.246094 358.652344 356.800781 374.101562 337.746094 374.101562 L 37.253906 374.101562 C 18.199219 374.101562 2.753906 358.652344 2.753906 339.601562 L 2.753906 35.398438 C 2.753906 16.347656 18.199219 0.898438 37.253906 0.898438 Z M 37.253906 0.898438 " clip-rule="nonzero"/></clipPath><clipPath id="e176cbdb92"><path d="M 256 0.75 L 372.351562 0.75 L 372.351562 117 L 256 117 Z M 256 0.75 " clip-rule="nonzero"/></clipPath><clipPath id="0bbe6f3873"><path d="M 1.851562 34.5 L 1.851562 340.5 C 1.851562 359.554688 17.296875 375 36.351562 375 L 338.648438 375 C 357.703125 375 373.148438 359.554688 373.148438 340.5 L 373.148438 34.5 C 373.148438 15.445312 357.703125 0 338.648438 0 L 36.351562 0 C 17.296875 0 1.851562 15.445312 1.851562 34.5 Z M 1.851562 34.5 " clip-rule="nonzero"/></clipPath><clipPath id="3bd3da187d"><path d="M 37.253906 0.898438 L 337.746094 0.898438 C 356.800781 0.898438 372.246094 16.347656 372.246094 35.398438 L 372.246094 339.601562 C 372.246094 358.652344 356.800781 374.101562 337.746094 374.101562 L 37.253906 374.101562 C 18.199219 374.101562 2.753906 358.652344 2.753906 339.601562 L 2.753906 35.398438 C 2.753906 16.347656 18.199219 0.898438 37.253906 0.898438 Z M 37.253906 0.898438 " clip-rule="nonzero"/></clipPath><clipPath id="5cfd155cae"><path d="M 256 129 L 372.351562 129 L 372.351562 246 L 256 246 Z M 256 129 " clip-rule="nonzero"/></clipPath><clipPath id="0319dbd444"><path d="M 1.851562 34.5 L 1.851562 340.5 C 1.851562 359.554688 17.296875 375 36.351562 375 L 338.648438 375 C 357.703125 375 373.148438 359.554688 373.148438 340.5 L 373.148438 34.5 C 373.148438 15.445312 357.703125 0 338.648438 0 L 36.351562 0 C 17.296875 0 1.851562 15.445312 1.851562 34.5 Z M 1.851562 34.5 " clip-rule="nonzero"/></clipPath><clipPath id="d34a68c796"><path d="M 37.253906 0.898438 L 337.746094 0.898438 C 356.800781 0.898438 372.246094 16.347656 372.246094 35.398438 L 372.246094 339.601562 C 372.246094 358.652344 356.800781 374.101562 337.746094 374.101562 L 37.253906 374.101562 C 18.199219 374.101562 2.753906 358.652344 2.753906 339.601562 L 2.753906 35.398438 C 2.753906 16.347656 18.199219 0.898438 37.253906 0.898438 Z M 37.253906 0.898438 " clip-rule="nonzero"/></clipPath><clipPath id="56a7e68819"><path d="M 256 258 L 372.351562 258 L 372.351562 374.25 L 256 374.25 Z M 256 258 " clip-rule="nonzero"/></clipPath><clipPath id="148811ba8b"><path d="M 1.851562 34.5 L 1.851562 340.5 C 1.851562 359.554688 17.296875 375 36.351562 375 L 338.648438 375 C 357.703125 375 373.148438 359.554688 373.148438 340.5 L 373.148438 34.5 C 373.148438 15.445312 357.703125 0 338.648438 0 L 36.351562 0 C 17.296875 0 1.851562 15.445312 1.851562 34.5 Z M 1.851562 34.5 " clip-rule="nonzero"/></clipPath><clipPath id="0838c8bd26"><path d="M 37.253906 0.898438 L 337.746094 0.898438 C 356.800781 0.898438 372.246094 16.347656 372.246094 35.398438 L 372.246094 339.601562 C 372.246094 358.652344 356.800781 374.101562 337.746094 374.101562 L 37.253906 374.101562 C 18.199219 374.101562 2.753906 358.652344 2.753906 339.601562 L 2.753906 35.398438 C 2.753906 16.347656 18.199219 0.898438 37.253906 0.898438 Z M 37.253906 0.898438 " clip-rule="nonzero"/></clipPath><clipPath id="41770a7dce"><path d="M 1.851562 0 L 373.101562 0 L 373.101562 375 L 1.851562 375 Z M 1.851562 0 " clip-rule="nonzero"/></clipPath><clipPath id="bf23134250"><path d="M 1.851562 34.5 L 1.851562 340.5 C 1.851562 359.554688 17.296875 375 36.351562 375 L 338.648438 375 C 357.703125 375 373.148438 359.554688 373.148438 340.5 L 373.148438 34.5 C 373.148438 15.445312 357.703125 0 338.648438 0 L 36.351562 0 C 17.296875 0 1.851562 15.445312 1.851562 34.5 Z M 1.851562 34.5 " clip-rule="nonzero"/></clipPath><clipPath id="1053587da3"><path d="M 1.851562 34.5 L 1.851562 340.5 C 1.851562 359.554688 17.296875 375 36.351562 375 L 338.636719 375 C 357.691406 375 373.136719 359.554688 373.136719 340.5 L 373.136719 34.5 C 373.136719 15.445312 357.691406 0 338.636719 0 L 36.351562 0 C 17.296875 0 1.851562 15.445312 1.851562 34.5 Z M 1.851562 34.5 " clip-rule="nonzero"/></clipPath><clipPath id="243278ea20"><path d="M 5.710938 3.476562 L 241 3.476562 L 241 115.226562 L 5.710938 115.226562 Z M 5.710938 3.476562 " clip-rule="nonzero"/></clipPath><clipPath id="42b49ef3d8"><path d="M 35.710938 3.476562 L 211.070312 3.476562 C 227.640625 3.476562 241.070312 16.910156 241.070312 33.476562 L 241.070312 85.226562 C 241.070312 101.796875 227.640625 115.226562 211.070312 115.226562 L 35.710938 115.226562 C 19.140625 115.226562 5.710938 101.796875 5.710938 85.226562 L 5.710938 33.476562 C 5.710938 16.910156 19.140625 3.476562 35.710938 3.476562 Z M 35.710938 3.476562 " clip-rule="nonzero"/></clipPath><clipPath id="c1ffb6df19"><path d="M 128.882812 128.597656 L 369.257812 128.597656 L 369.257812 246.402344 L 128.882812 246.402344 Z M 128.882812 128.597656 " clip-rule="nonzero"/></clipPath><clipPath id="a050726274"><path d="M 37.5 258.140625 L 244.03125 258.140625 L 244.03125 371.675781 L 37.5 371.675781 Z M 37.5 258.140625 " clip-rule="nonzero"/></clipPath><clipPath id="250e3f45b3"><path d="M 5.710938 54.449219 L 244.03125 54.449219 L 244.03125 118.097656 L 5.710938 118.097656 Z M 5.710938 54.449219 " clip-rule="nonzero"/></clipPath><clipPath id="0df7ec0dfe"><path d="M 111.066406 3.476562 L 244.03125 3.476562 L 244.03125 67.125 L 111.066406 67.125 Z M 111.066406 3.476562 " clip-rule="nonzero"/></clipPath><clipPath id="6658397fde"><path d="M 256.507812 3.464844 L 370.003906 3.464844 L 370.003906 115.214844 L 256.507812 115.214844 Z M 256.507812 3.464844 " clip-rule="nonzero"/></clipPath><clipPath id="ea53c0f400"><path d="M 340.003906 115.214844 L 286.574219 115.214844 C 270.003906 115.214844 256.574219 101.785156 256.574219 85.214844 L 256.574219 33.464844 C 256.574219 16.898438 270.003906 3.464844 286.574219 3.464844 L 340.003906 3.464844 C 356.570312 3.464844 370.003906 16.898438 370.003906 33.464844 L 370.003906 85.214844 C 370.003906 101.785156 356.570312 115.214844 340.003906 115.214844 Z M 340.003906 115.214844 " clip-rule="nonzero"/></clipPath><clipPath id="2103041ef3"><path d="M 256.195312 259.890625 L 369.253906 259.890625 L 369.253906 371.640625 L 256.195312 371.640625 Z M 256.195312 259.890625 " clip-rule="nonzero"/></clipPath><clipPath id="a011159b3b"><path d="M 339.253906 371.640625 L 286.574219 371.640625 C 270.003906 371.640625 256.574219 358.207031 256.574219 341.640625 L 256.574219 289.890625 C 256.574219 273.320312 270.003906 259.890625 286.574219 259.890625 L 339.253906 259.890625 C 355.820312 259.890625 369.253906 273.320312 369.253906 289.890625 L 369.253906 341.640625 C 369.253906 358.207031 355.820312 371.640625 339.253906 371.640625 Z M 339.253906 371.640625 " clip-rule="nonzero"/></clipPath><clipPath id="d84dc78dcd"><path d="M 256.578125 258.140625 L 333.207031 258.140625 L 333.207031 371.675781 L 256.578125 371.675781 Z M 256.578125 258.140625 " clip-rule="nonzero"/></clipPath><clipPath id="b3e2b5cfd3"><path d="M 256.574219 258.136719 L 369.253906 258.136719 L 369.253906 334.765625 L 256.574219 334.765625 Z M 256.574219 258.136719 " clip-rule="nonzero"/></clipPath><clipPath id="7cac263b0c"><path d="M 5.710938 259.902344 L 241 259.902344 L 241 371.652344 L 5.710938 371.652344 Z M 5.710938 259.902344 " clip-rule="nonzero"/></clipPath><clipPath id="9ba873991a"><path d="M 35.710938 259.902344 L 211.070312 259.902344 C 227.640625 259.902344 241.070312 273.332031 241.070312 289.902344 L 241.070312 341.652344 C 241.070312 358.21875 227.640625 371.652344 211.070312 371.652344 L 35.710938 371.652344 C 19.140625 371.652344 5.710938 358.21875 5.710938 341.652344 L 5.710938 289.902344 C 5.710938 273.332031 19.140625 259.902344 35.710938 259.902344 Z M 35.710938 259.902344 " clip-rule="nonzero"/></clipPath><clipPath id="18eefcd557"><path d="M 5.710938 258.140625 L 73.03125 258.140625 L 73.03125 339.429688 L 5.710938 339.429688 Z M 5.710938 258.140625 " clip-rule="nonzero"/></clipPath><clipPath id="f0c38fa52e"><path d="M 257 39.96875 L 369.628906 39.96875 L 369.628906 116.597656 L 257 116.597656 Z M 257 39.96875 " clip-rule="nonzero"/></clipPath><clipPath id="8e91110150"><path d="M 256.578125 3.476562 L 333.207031 3.476562 L 333.207031 116.597656 L 256.578125 116.597656 Z M 256.578125 3.476562 " clip-rule="nonzero"/></clipPath><clipPath id="a36ee5d5fc"><path d="M 5.710938 128.597656 L 114.722656 128.597656 L 114.722656 246.402344 L 5.710938 246.402344 Z M 5.710938 128.597656 " clip-rule="nonzero"/></clipPath></defs><g clip-path="url(#7680b4b400)"><g clip-path="url(#ad2804e0f4)"><g clip-path="url(#a8b9b18b0b)"><path fill="#f8f8f8" d="M -388.359375 0.40625 L 372.9375 0.40625 L 372.9375 374.578125 L -388.359375 374.578125 Z M -388.359375 0.40625 " fill-opacity="1" fill-rule="nonzero"/></g></g></g><g clip-path="url(#acd0b463af)"><g clip-path="url(#aef0cfca16)"><g clip-path="url(#1ae9e82c1c)"><path fill="#62b559" d="M -1.394531 374.578125 L 114.960938 374.578125 L 114.960938 258.195312 L -1.394531 258.195312 Z M -1.394531 374.578125 " fill-opacity="1" fill-rule="nonzero"/></g></g></g><g clip-path="url(#55a7b8e94d)"><g clip-path="url(#31cb3e1429)"><g clip-path="url(#51e03cecee)"><path fill="#dfc23f" d="M -1.394531 245.683594 L 114.960938 245.683594 L 114.960938 129.300781 L -1.394531 129.300781 Z M -1.394531 245.683594 " fill-opacity="1" fill-rule="nonzero"/></g></g></g><g clip-path="url(#7cfa8ad1af)"><g clip-path="url(#f92f274f82)"><g clip-path="url(#c7f8dbf615)"><path fill="#76777b" d="M -1.394531 116.789062 L 114.960938 116.789062 L 114.960938 0.40625 L -1.394531 0.40625 Z M -1.394531 116.789062 " fill-opacity="1" fill-rule="nonzero"/></g></g></g><g clip-path="url(#65b2ffa815)"><g clip-path="url(#e415f401a0)"><g clip-path="url(#0e5efcba67)"><path fill="#76777b" d="M 127.589844 374.578125 L 243.949219 374.578125 L 243.949219 258.195312 L 127.589844 258.195312 Z M 127.589844 374.578125 " fill-opacity="1" fill-rule="nonzero"/></g></g></g><g clip-path="url(#7301d075f5)"><g clip-path="url(#f22f2ae6a7)"><g clip-path="url(#946193c3a3)"><path fill="#ffffff" d="M 127.589844 245.683594 L 243.949219 245.683594 L 243.949219 129.300781 L 127.589844 129.300781 Z M 127.589844 245.683594 " fill-opacity="1" fill-rule="nonzero"/></g></g></g><g clip-path="url(#70b7fc4527)"><g clip-path="url(#c65ae65c8c)"><g clip-path="url(#0828bb1333)"><path fill="#76777b" d="M 127.589844 116.789062 L 243.949219 116.789062 L 243.949219 0.40625 L 127.589844 0.40625 Z M 127.589844 116.789062 " fill-opacity="1" fill-rule="nonzero"/></g></g></g><g clip-path="url(#e176cbdb92)"><g clip-path="url(#0bbe6f3873)"><g clip-path="url(#3bd3da187d)"><path fill="#62b559" d="M 256.578125 0.40625 L 372.9375 0.40625 L 372.9375 116.789062 L 256.578125 116.789062 Z M 256.578125 0.40625 " fill-opacity="1" fill-rule="nonzero"/></g></g></g><g clip-path="url(#5cfd155cae)"><g clip-path="url(#0319dbd444)"><g clip-path="url(#d34a68c796)"><path fill="#76777b" d="M 256.578125 129.300781 L 372.9375 129.300781 L 372.9375 245.683594 L 256.578125 245.683594 Z M 256.578125 129.300781 " fill-opacity="1" fill-rule="nonzero"/></g></g></g><g clip-path="url(#56a7e68819)"><g clip-path="url(#148811ba8b)"><g clip-path="url(#0838c8bd26)"><path fill="#62b559" d="M 256.578125 258.195312 L 372.9375 258.195312 L 372.9375 374.578125 L 256.578125 374.578125 Z M 256.578125 258.195312 " fill-opacity="1" fill-rule="nonzero"/></g></g></g><g clip-path="url(#41770a7dce)"><g clip-path="url(#bf23134250)"><g clip-path="url(#1053587da3)"><path stroke-linecap="butt" transform="matrix(0.75, 0, 0, 0.75, 1.852606, 0.000000000000021316)" fill="none" stroke-linejoin="miter" d="M -0.00139104 46.000003 L -0.00139104 454.00003 C -0.00139104 479.406281 20.592359 500.000033 45.998609 500.000033 L 449.045485 500.000033 C 474.451735 500.000033 495.045485 479.406281 495.045485 454.00003 L 495.045485 46.000003 C 495.045485 20.593751 474.451735 -0.000000000000028422 449.045485 -0.000000000000028422 L 45.998609 -0.000000000000028422 C 20.592359 -0.000000000000028422 -0.00139104 20.593751 -0.00139104 46.000003 Z M -0.00139104 46.000003 " stroke="#000000" stroke-width="10" stroke-opacity="1" stroke-miterlimit="4"/></g></g></g><g clip-path="url(#243278ea20)"><g clip-path="url(#42b49ef3d8)"><path fill="#95c8df" d="M 5.710938 3.476562 L 240.996094 3.476562 L 240.996094 115.226562 L 5.710938 115.226562 Z M 5.710938 3.476562 " fill-opacity="1" fill-rule="nonzero"/></g></g><g clip-path="url(#c1ffb6df19)"><path fill="#95c8df" d="M 128.882812 128.597656 L 369.085938 128.597656 L 369.085938 246.402344 L 128.882812 246.402344 Z M 128.882812 128.597656 " fill-opacity="1" fill-rule="nonzero"/></g><g clip-path="url(#a050726274)"><path fill="#95c8df" d="M 37.5 258.140625 L 244.171875 258.140625 L 244.171875 371.675781 L 37.5 371.675781 Z M 37.5 258.140625 " fill-opacity="1" fill-rule="nonzero"/></g><g clip-path="url(#250e3f45b3)"><path fill="#95c8df" d="M 5.710938 54.449219 L 244.144531 54.449219 L 244.144531 118.097656 L 5.710938 118.097656 Z M 5.710938 54.449219 " fill-opacity="1" fill-rule="nonzero"/></g><g clip-path="url(#0df7ec0dfe)"><path fill="#95c8df" d="M 111.066406 3.476562 L 244.082031 3.476562 L 244.082031 67.125 L 111.066406 67.125 Z M 111.066406 3.476562 " fill-opacity="1" fill-rule="nonzero"/></g><g clip-path="url(#6658397fde)"><g clip-path="url(#ea53c0f400)"><path fill="#76777b" d="M 370.003906 115.214844 L 256.507812 115.214844 L 256.507812 3.464844 L 370.003906 3.464844 Z M 370.003906 115.214844 " fill-opacity="1" fill-rule="nonzero"/></g></g><g clip-path="url(#2103041ef3)"><g clip-path="url(#a011159b3b)"><path fill="#76777b" d="M 369.253906 371.640625 L 256.628906 371.640625 L 256.628906 259.890625 L 369.253906 259.890625 Z M 369.253906 371.640625 " fill-opacity="1" fill-rule="nonzero"/></g></g><g clip-path="url(#d84dc78dcd)"><path fill="#76777b" d="M 256.578125 258.140625 L 333.207031 258.140625 L 333.207031 371.585938 L 256.578125 371.585938 Z M 256.578125 258.140625 " fill-opacity="1" fill-rule="nonzero"/></g><g clip-path="url(#b3e2b5cfd3)"><path fill="#76777b" d="M 369.253906 258.136719 L 369.253906 334.765625 L 256.707031 334.765625 L 256.707031 258.136719 Z M 369.253906 258.136719 " fill-opacity="1" fill-rule="nonzero"/></g><g clip-path="url(#7cac263b0c)"><g clip-path="url(#9ba873991a)"><path fill="#95c8df" d="M 5.710938 259.902344 L 240.996094 259.902344 L 240.996094 371.652344 L 5.710938 371.652344 Z M 5.710938 259.902344 " fill-opacity="1" fill-rule="nonzero"/></g></g><g clip-path="url(#18eefcd557)"><path fill="#95c8df" d="M 5.710938 258.140625 L 73.03125 258.140625 L 73.03125 339.402344 L 5.710938 339.402344 Z M 5.710938 258.140625 " fill-opacity="1" fill-rule="nonzero"/></g><g clip-path="url(#f0c38fa52e)"><path fill="#76777b" d="M 369.628906 39.96875 L 369.628906 116.597656 L 257.082031 116.597656 L 257.082031 39.96875 Z M 369.628906 39.96875 " fill-opacity="1" fill-rule="nonzero"/></g><g clip-path="url(#8e91110150)"><path fill="#76777b" d="M 256.578125 3.476562 L 333.207031 3.476562 L 333.207031 116.625 L 256.578125 116.625 Z M 256.578125 3.476562 " fill-opacity="1" fill-rule="nonzero"/></g><g clip-path="url(#a36ee5d5fc)"><path fill="#76777b" d="M 5.710938 128.597656 L 114.722656 128.597656 L 114.722656 246.554688 L 5.710938 246.554688 Z M 5.710938 128.597656 " fill-opacity="1" fill-rule="nonzero"/></g></svg>